<svg width="8" height="14" viewBox="0 0 8 14" fill="none" xmlns="http://www.w3.org/2000/svg">
<path d="M4.72324 5.34084C4.72324 5.47889 4.83515 5.59081 4.9732 5.59084L7.06247 5.59117C7.2209 5.5912 7.33935 5.7367 7.30724 5.89184L6.98993 7.42514C6.96591 7.54121 6.8637 7.62446 6.74517 7.62448L4.97319 7.62484C4.83514 7.62486 4.72324 7.73678 4.72324 7.87484V13.4998C4.72324 13.6379 4.61131 13.7498 4.47324 13.7498H2.55108C2.41301 13.7498 2.30108 13.6379 2.30108 13.4998V7.87484C2.30108 7.73679 2.18918 7.62487 2.05113 7.62484L0.499947 7.62451C0.361896 7.62448 0.25 7.51256 0.25 7.37451V5.84094C0.25 5.70285 0.361961 5.59091 0.500053 5.59094L2.05103 5.59127C2.11734 5.59129 2.18094 5.56495 2.22784 5.51807C2.27473 5.47118 2.30108 5.40759 2.30108 5.34127V3.41015C2.30108 2.38945 2.74069 1.59959 3.3015 1.06175C3.87103 0.515545 4.54262 0.25 4.97324 0.25L7.28642 0.250325C7.42404 0.250354 7.53571 0.361849 7.53571 0.500315V2.00044C7.53571 2.13851 7.42378 2.25044 7.28571 2.25044H6.60657C6.03044 2.25044 5.54912 2.29639 5.21578 2.51804C4.8501 2.76121 4.72324 3.16579 4.72324 3.69671V5.34084Z" stroke="white" stroke-width="0.5" stroke-linejoin="round"/>
</svg>
