<svg width="16" height="12" viewBox="0 0 16 12" fill="none" xmlns="http://www.w3.org/2000/svg">
<path d="M1.81643 12H14.1836C15.1862 11.9988 15.9988 11.1879 16 10.1873V1.81267C15.9988 0.812074 15.1862 0.00123416 14.1836 0H1.81643C0.813758 0.00123416 0.00123671 0.812074 0 1.81267V10.1873C0.00123671 11.1879 0.813758 11.9988 1.81643 12ZM1.81643 11.4601C1.53724 11.4604 1.26578 11.3687 1.0441 11.1993L4.7428 7.42406C4.81144 7.35526 4.83772 7.25498 4.81175 7.16149C4.78578 7.06801 4.71158 6.9955 4.61728 6.97205C4.52298 6.94829 4.42311 6.97668 4.35571 7.04672L0.691942 10.7868C0.593005 10.6026 0.541063 10.3965 0.541063 10.1873V2.40784L6.82852 7.72057C7.50531 8.29568 8.50056 8.29537 9.17704 7.71933L15.4589 2.40259V10.187C15.4592 10.3971 15.407 10.6036 15.3071 10.7884L11.6211 7.04579C11.5163 6.94058 11.3456 6.93935 11.2396 7.04332C11.1335 7.14761 11.1314 7.31762 11.2352 7.42406L14.954 11.2C14.7327 11.3684 14.4618 11.4597 14.1833 11.4594L1.81643 11.4601ZM1.81643 0.539943H14.1836C14.8434 0.540869 15.394 1.04317 15.4537 1.69912L8.82705 7.30774C8.35215 7.71193 7.65341 7.71224 7.17789 7.30836L0.54601 1.70437C0.602899 1.04626 1.15447 0.540869 1.81643 0.539943Z" fill="white"/>
</svg>
