<svg width="16" height="14" viewBox="0 0 16 14" fill="none" xmlns="http://www.w3.org/2000/svg">
<path d="M15.0541 8.27722C14.6895 7.91319 14.2087 7.68609 13.6934 7.63503V0.69325C13.6934 0.614675 13.6535 0.541405 13.5869 0.498636C13.5202 0.455867 13.4364 0.449237 13.3637 0.481064L9.27423 2.27967L5.18007 0.028844C5.17773 0.0275178 5.17505 0.0265232 5.1727 0.025197C5.17036 0.0238709 5.16701 0.0222132 5.16433 0.0212185C5.15829 0.0185662 5.15193 0.0159139 5.1459 0.0135931C5.14389 0.0129301 5.14188 0.0119354 5.13987 0.0112724C5.12244 0.00563618 5.10468 0.00198924 5.08659 0.00033154C5.08492 0.00033154 5.0829 0.00033154 5.08089 0C5.07386 0 5.06682 0 5.05979 0C5.05744 0 5.05509 0 5.05275 0.00033154C5.04538 0.00099462 5.03834 0.0016577 5.03097 0.00265232C5.02929 0.00298386 5.02762 0.00298386 5.02594 0.0033154C5.0169 0.0049731 5.00819 0.00696234 4.99981 0.00928312C4.99813 0.00961466 4.99679 0.0102777 4.99512 0.0109408C4.98808 0.0132616 4.98105 0.0155824 4.97401 0.0185662C4.973 0.0188978 4.972 0.0192293 4.97099 0.0195608L0.774641 1.86524C0.689869 1.90271 0.635254 1.98559 0.635254 2.07743V11.3048C0.635254 11.3834 0.675127 11.4567 0.741805 11.4995C0.808482 11.5422 0.892249 11.5489 0.964958 11.517L5.05442 9.71843L9.14858 11.9689C9.1516 11.9706 9.15495 11.9719 9.15796 11.9732C9.16198 11.9752 9.16634 11.9772 9.17036 11.9792C9.17606 11.9815 9.18209 11.9838 9.18812 11.9858C9.19214 11.9872 9.19616 11.9888 9.20018 11.9898C9.20655 11.9915 9.21325 11.9928 9.21962 11.9941C9.22364 11.9948 9.22732 11.9958 9.23134 11.9964C9.23972 11.9974 9.24776 11.9981 9.25614 11.9981C9.25815 11.9981 9.26016 11.9984 9.2625 11.9984C9.27222 11.9984 9.2816 11.9978 9.29098 11.9964C9.29333 11.9961 9.29534 11.9958 9.29769 11.9954C9.30472 11.9944 9.31209 11.9931 9.31913 11.9911C9.32215 11.9905 9.32483 11.9898 9.32751 11.9888C9.33421 11.9872 9.34091 11.9848 9.34728 11.9822C9.34996 11.9812 9.35264 11.9805 9.35498 11.9792C9.35599 11.9789 9.35666 11.9785 9.35766 11.9782L11.479 11.0452C11.5788 11.216 11.6981 11.3745 11.8351 11.5177L13.2907 13.0517C13.3349 13.0985 13.3969 13.125 13.4615 13.125C13.5262 13.125 13.5882 13.0985 13.6324 13.0517L15.0879 11.5177C15.3148 11.2836 15.491 11.0065 15.606 10.7028C15.7159 10.4094 15.7621 10.0967 15.7417 9.78474C15.7041 9.21648 15.4599 8.68104 15.0541 8.27722ZM13.2246 7.63536C12.7113 7.68775 12.2325 7.91452 11.8696 8.27689C11.4639 8.68071 11.2193 9.21648 11.1814 9.7844C11.163 10.0675 11.1998 10.3513 11.2893 10.6205L9.49738 11.4086V2.68912L13.225 1.04999L13.2246 7.63536ZM5.3007 0.626279L9.02796 2.6752V11.3718L5.3007 9.3229V0.626279ZM1.10434 2.22795L4.83194 0.588815V9.30831L1.10434 10.9478V2.22795ZM15.1657 10.544C15.0722 10.7886 14.9295 11.0118 14.7462 11.2001L13.4615 12.5541L12.1769 11.2001C11.9936 11.0118 11.8509 10.7883 11.7574 10.544C11.6699 10.3116 11.6331 10.0632 11.6488 9.8159C11.679 9.35937 11.8753 8.92903 12.2014 8.60479C12.5351 8.27358 12.9884 8.08725 13.4615 8.08725C13.9346 8.08725 14.3877 8.27358 14.7217 8.60479C15.0477 8.92936 15.2437 9.35937 15.2742 9.8159C15.29 10.0632 15.2531 10.3112 15.1657 10.544Z" fill="white"/>
</svg>
