<svg width="190" height="56" viewBox="0 0 190 56" fill="none" xmlns="http://www.w3.org/2000/svg">
<path d="M8.85665 17.7629C7.1832 17.7629 5.66762 17.4007 4.30992 16.6764C2.968 15.9362 1.91026 14.9205 1.13668 13.6293C0.378894 12.338 0 10.8814 0 9.25939C0 7.63742 0.386788 6.1808 1.16036 4.88952C1.93394 3.59825 2.99168 2.59042 4.3336 1.86605C5.6913 1.12593 7.20688 0.755868 8.88033 0.755868C10.238 0.755868 11.4773 0.992077 12.5982 1.4645C13.7191 1.93691 14.6664 2.62192 15.4399 3.51951L13.4507 5.38556C12.2509 4.09429 10.7748 3.44865 9.02241 3.44865C7.88573 3.44865 6.86745 3.70061 5.96758 4.20452C5.06771 4.69268 4.36517 5.37769 3.85998 6.25954C3.35479 7.14138 3.10219 8.14133 3.10219 9.25939C3.10219 10.3774 3.35479 11.3774 3.85998 12.2592C4.36517 13.1411 5.06771 13.834 5.96758 14.3379C6.86745 14.826 7.88573 15.0701 9.02241 15.0701C10.7748 15.0701 12.2509 14.4166 13.4507 13.1096L15.4399 14.9993C14.6664 15.8969 13.7112 16.5819 12.5745 17.0543C11.4537 17.5267 10.2144 17.7629 8.85665 17.7629Z" fill="#2D2D2D"/>
<path d="M29.9459 4.91315L24.0257 18.5424C23.4732 19.9124 22.8022 20.873 22.0129 21.4241C21.2235 21.991 20.2684 22.2745 19.1475 22.2745C18.516 22.2745 17.8924 22.1721 17.2767 21.9674C16.661 21.7627 16.1558 21.4793 15.7611 21.1171L16.9451 18.944C17.2293 19.2117 17.5609 19.4242 17.9397 19.5817C18.3344 19.7392 18.7291 19.8179 19.1238 19.8179C19.6448 19.8179 20.071 19.6841 20.4026 19.4164C20.7499 19.1487 21.0656 18.6999 21.3498 18.07L21.5629 17.5739L16.0453 4.91315H19.1238L23.1022 14.2434L27.1042 4.91315H29.9459Z" fill="#2D2D2D"/>
<path d="M38.8056 4.77142C40.037 4.77142 41.1342 5.03912 42.0972 5.57453C43.076 6.10994 43.8417 6.86581 44.3942 7.84214C44.9468 8.81847 45.2231 9.94439 45.2231 11.2199C45.2231 12.4955 44.9468 13.6293 44.3942 14.6213C43.8417 15.5977 43.076 16.3535 42.0972 16.8889C41.1342 17.4243 40.037 17.692 38.8056 17.692C37.9373 17.692 37.14 17.5424 36.4138 17.2432C35.7034 16.9441 35.1034 16.4953 34.614 15.8969V17.5267H31.796V0H34.7561V6.4485C35.2613 5.89735 35.8533 5.48005 36.5322 5.1966C37.2268 4.91315 37.9846 4.77142 38.8056 4.77142ZM38.474 15.1646C39.5633 15.1646 40.4553 14.8024 41.15 14.0781C41.8604 13.3537 42.2156 12.401 42.2156 11.2199C42.2156 10.0389 41.8604 9.08617 41.15 8.3618C40.4553 7.63742 39.5633 7.27523 38.474 7.27523C37.7636 7.27523 37.1242 7.44058 36.5559 7.77127C35.9875 8.08622 35.5376 8.54289 35.2061 9.14128C34.8745 9.73968 34.7088 10.4326 34.7088 11.2199C34.7088 12.0073 34.8745 12.7002 35.2061 13.2986C35.5376 13.897 35.9875 14.3615 36.5559 14.6922C37.1242 15.0071 37.7636 15.1646 38.474 15.1646Z" fill="#2D2D2D"/>
<path d="M59.9182 11.2908C59.9182 11.4955 59.9024 11.7868 59.8708 12.1648H49.9485C50.1222 13.0938 50.5721 13.834 51.2983 14.3851C52.0403 14.9205 52.956 15.1882 54.0453 15.1882C55.4346 15.1882 56.5792 14.7316 57.479 13.8182L59.0657 15.637C58.4973 16.3142 57.779 16.8259 56.9107 17.1724C56.0424 17.5188 55.0636 17.692 53.9743 17.692C52.585 17.692 51.3615 17.4165 50.3037 16.8653C49.246 16.3142 48.425 15.5504 47.8409 14.5741C47.2726 13.582 46.9884 12.464 46.9884 11.2199C46.9884 9.99164 47.2647 8.88933 47.8172 7.913C48.3856 6.92092 49.167 6.14931 50.1616 5.59815C51.1562 5.047 52.2771 4.77142 53.5243 4.77142C54.7557 4.77142 55.8529 5.047 56.816 5.59815C57.7948 6.13356 58.5526 6.8973 59.0893 7.88938C59.6419 8.86571 59.9182 9.99951 59.9182 11.2908ZM53.5243 7.13351C52.5771 7.13351 51.7719 7.41696 51.1089 7.98386C50.4616 8.53502 50.0669 9.27514 49.9248 10.2042H57.1001C56.9738 9.29088 56.5871 8.55076 55.9398 7.98386C55.2925 7.41696 54.4873 7.13351 53.5243 7.13351Z" fill="#2D2D2D"/>
<path d="M65.5796 6.75557C66.4321 5.4328 67.9319 4.77142 70.0789 4.77142V7.58231C69.8263 7.53506 69.5974 7.51144 69.3922 7.51144C68.2397 7.51144 67.3398 7.85001 66.6926 8.52714C66.0453 9.18853 65.7216 10.1491 65.7216 11.4089V17.5267H62.7615V4.91315H65.5796V6.75557Z" fill="#2D2D2D"/>
<path d="M90.3803 17.5267L86.9939 12.6844C86.8518 12.7002 86.6387 12.708 86.3545 12.708H82.613V17.5267H79.5344V0.992077H86.3545C87.7912 0.992077 89.0384 1.22829 90.0961 1.7007C91.1696 2.17312 91.9906 2.85025 92.5589 3.7321C93.1273 4.61395 93.4114 5.66114 93.4114 6.87368C93.4114 8.11771 93.1036 9.18853 92.4879 10.0861C91.888 10.9837 91.0197 11.653 89.883 12.0939L93.6956 17.5267H90.3803ZM90.3092 6.87368C90.3092 5.81861 89.9619 5.00763 89.2673 4.44073C88.5726 3.87383 87.5544 3.59038 86.2124 3.59038H82.613V10.1806H86.2124C87.5544 10.1806 88.5726 9.89715 89.2673 9.33025C89.9619 8.7476 90.3092 7.92875 90.3092 6.87368Z" fill="#2D2D2D"/>
<path d="M108.459 11.2908C108.459 11.4955 108.444 11.7868 108.412 12.1648H98.4897C98.6633 13.0938 99.1133 13.834 99.8395 14.3851C100.581 14.9205 101.497 15.1882 102.586 15.1882C103.976 15.1882 105.12 14.7316 106.02 13.8182L107.607 15.637C107.038 16.3142 106.32 16.8259 105.452 17.1724C104.584 17.5188 103.605 17.692 102.515 17.692C101.126 17.692 99.9026 17.4165 98.8449 16.8653C97.7871 16.3142 96.9662 15.5504 96.3821 14.5741C95.8137 13.582 95.5296 12.464 95.5296 11.2199C95.5296 9.99164 95.8058 8.88933 96.3584 7.913C96.9267 6.92092 97.7082 6.14931 98.7028 5.59815C99.6974 5.047 100.818 4.77142 102.065 4.77142C103.297 4.77142 104.394 5.047 105.357 5.59815C106.336 6.13356 107.094 6.8973 107.631 7.88938C108.183 8.86571 108.459 9.99951 108.459 11.2908ZM102.065 7.13351C101.118 7.13351 100.313 7.41696 99.65 7.98386C99.0028 8.53502 98.6081 9.27514 98.466 10.2042H105.641C105.515 9.29088 105.128 8.55076 104.481 7.98386C103.834 7.41696 103.029 7.13351 102.065 7.13351Z" fill="#2D2D2D"/>
<path d="M117.105 17.692C115.794 17.692 114.618 17.4165 113.576 16.8653C112.534 16.3142 111.721 15.5504 111.137 14.5741C110.553 13.582 110.261 12.464 110.261 11.2199C110.261 9.97589 110.553 8.86571 111.137 7.88938C111.721 6.91305 112.526 6.14931 113.552 5.59815C114.594 5.047 115.778 4.77142 117.105 4.77142C118.352 4.77142 119.441 5.02338 120.372 5.52729C121.32 6.0312 122.03 6.75558 122.504 7.70041L120.23 9.02318C119.867 8.44053 119.409 8.00748 118.857 7.72403C118.32 7.42483 117.728 7.27523 117.081 7.27523C115.976 7.27523 115.06 7.63742 114.334 8.3618C113.608 9.07042 113.245 10.0231 113.245 11.2199C113.245 12.4167 113.6 13.3773 114.31 14.1017C115.036 14.8103 115.96 15.1646 117.081 15.1646C117.728 15.1646 118.32 15.0229 118.857 14.7394C119.409 14.4402 119.867 13.9993 120.23 13.4167L122.504 14.7394C122.014 15.6843 121.296 16.4165 120.349 16.9362C119.417 17.4401 118.336 17.692 117.105 17.692Z" fill="#2D2D2D"/>
<path d="M130.561 17.692C129.282 17.692 128.13 17.4165 127.104 16.8653C126.077 16.3142 125.272 15.5504 124.688 14.5741C124.12 13.582 123.836 12.464 123.836 11.2199C123.836 9.97589 124.12 8.86571 124.688 7.88938C125.272 6.91305 126.077 6.14931 127.104 5.59815C128.13 5.047 129.282 4.77142 130.561 4.77142C131.856 4.77142 133.016 5.047 134.042 5.59815C135.068 6.14931 135.866 6.91305 136.434 7.88938C137.018 8.86571 137.31 9.97589 137.31 11.2199C137.31 12.464 137.018 13.582 136.434 14.5741C135.866 15.5504 135.068 16.3142 134.042 16.8653C133.016 17.4165 131.856 17.692 130.561 17.692ZM130.561 15.1646C131.65 15.1646 132.55 14.8024 133.261 14.0781C133.971 13.3537 134.326 12.401 134.326 11.2199C134.326 10.0389 133.971 9.08617 133.261 8.3618C132.55 7.63742 131.65 7.27523 130.561 7.27523C129.472 7.27523 128.572 7.63742 127.861 8.3618C127.167 9.08617 126.819 10.0389 126.819 11.2199C126.819 12.401 127.167 13.3537 127.861 14.0781C128.572 14.8024 129.472 15.1646 130.561 15.1646Z" fill="#2D2D2D"/>
<path d="M151.634 4.91315L146.211 17.5267H143.156L137.734 4.91315H140.812L144.743 14.267L148.792 4.91315H151.634Z" fill="#2D2D2D"/>
<path d="M165.025 11.2908C165.025 11.4955 165.009 11.7868 164.978 12.1648H155.056C155.229 13.0938 155.679 13.834 156.405 14.3851C157.147 14.9205 158.063 15.1882 159.152 15.1882C160.542 15.1882 161.686 14.7316 162.586 13.8182L164.173 15.637C163.604 16.3142 162.886 16.8259 162.018 17.1724C161.149 17.5188 160.171 17.692 159.081 17.692C157.692 17.692 156.468 17.4165 155.411 16.8653C154.353 16.3142 153.532 15.5504 152.948 14.5741C152.38 13.582 152.095 12.464 152.095 11.2199C152.095 9.99164 152.372 8.88933 152.924 7.913C153.493 6.92092 154.274 6.14931 155.269 5.59815C156.263 5.047 157.384 4.77142 158.631 4.77142C159.863 4.77142 160.96 5.047 161.923 5.59815C162.902 6.13356 163.66 6.8973 164.196 7.88938C164.749 8.86571 165.025 9.99951 165.025 11.2908ZM158.631 7.13351C157.684 7.13351 156.879 7.41696 156.216 7.98386C155.569 8.53502 155.174 9.27514 155.032 10.2042H162.207C162.081 9.29088 161.694 8.55076 161.047 7.98386C160.4 7.41696 159.594 7.13351 158.631 7.13351Z" fill="#2D2D2D"/>
<path d="M170.687 6.75557C171.539 5.4328 173.039 4.77142 175.186 4.77142V7.58231C174.933 7.53506 174.704 7.51144 174.499 7.51144C173.347 7.51144 172.447 7.85001 171.8 8.52714C171.152 9.18853 170.829 10.1491 170.829 11.4089V17.5267H167.869V4.91315H170.687V6.75557Z" fill="#2D2D2D"/>
<path d="M190 4.91315L184.08 18.5424C183.527 19.9124 182.856 20.873 182.067 21.4241C181.278 21.991 180.322 22.2745 179.202 22.2745C178.57 22.2745 177.946 22.1721 177.331 21.9674C176.715 21.7627 176.21 21.4793 175.815 21.1171L176.999 18.944C177.283 19.2117 177.615 19.4242 177.994 19.5817C178.388 19.7392 178.783 19.8179 179.178 19.8179C179.699 19.8179 180.125 19.6841 180.457 19.4164C180.804 19.1487 181.12 18.6999 181.404 18.07L181.617 17.5739L176.099 4.91315H179.178L183.156 14.2434L187.158 4.91315H190Z" fill="#2D2D2D"/>
<path d="M12.5035 42.9613H15.4163V49.5515C14.5637 50.2286 13.5691 50.7483 12.4325 51.1105C11.2958 51.4727 10.1275 51.6538 8.92769 51.6538C7.23845 51.6538 5.71498 51.2916 4.35728 50.5672C2.99958 49.8271 1.93394 48.8114 1.16036 47.5201C0.386788 46.2288 0 44.7722 0 43.1502C0 41.5283 0.386788 40.0716 1.16036 38.7804C1.93394 37.4891 2.99958 36.4813 4.35728 35.7569C5.73077 35.0168 7.27003 34.6467 8.97505 34.6467C10.3643 34.6467 11.6273 34.875 12.764 35.3317C13.9007 35.7884 14.8558 36.4576 15.6294 37.3395L13.6875 39.2292C12.4246 37.9694 10.9011 37.3395 9.11714 37.3395C7.94888 37.3395 6.90692 37.5836 5.99126 38.0717C5.09139 38.5599 4.38096 39.2449 3.85998 40.1268C3.35479 41.0086 3.10219 42.0164 3.10219 43.1502C3.10219 44.2525 3.35479 45.2446 3.85998 46.1265C4.38096 47.0083 5.09139 47.7012 5.99126 48.2051C6.90692 48.709 7.94099 48.961 9.09346 48.961C10.388 48.961 11.5247 48.6775 12.5035 48.1106V42.9613Z" fill="#2D2D2D"/>
<path d="M22.0104 40.6464C22.863 39.3237 24.3627 38.6623 26.5098 38.6623V41.4731C26.2572 41.4259 26.0283 41.4023 25.8231 41.4023C24.6706 41.4023 23.7707 41.7409 23.1235 42.418C22.4762 43.0794 22.1525 44.04 22.1525 45.2997V51.4175H19.1924V38.804H22.0104V40.6464Z" fill="#2D2D2D"/>
<path d="M34.5887 51.5829C33.3099 51.5829 32.1575 51.3073 31.1313 50.7562C30.1051 50.205 29.3 49.4413 28.7158 48.4649C28.1475 47.4729 27.8633 46.3548 27.8633 45.1108C27.8633 43.8667 28.1475 42.7565 28.7158 41.7802C29.3 40.8039 30.1051 40.0401 31.1313 39.489C32.1575 38.9378 33.3099 38.6623 34.5887 38.6623C35.8832 38.6623 37.0436 38.9378 38.0698 39.489C39.096 40.0401 39.8932 40.8039 40.4615 41.7802C41.0457 42.7565 41.3377 43.8667 41.3377 45.1108C41.3377 46.3548 41.0457 47.4729 40.4615 48.4649C39.8932 49.4413 39.096 50.205 38.0698 50.7562C37.0436 51.3073 35.8832 51.5829 34.5887 51.5829ZM34.5887 49.0555C35.678 49.0555 36.5779 48.6933 37.2883 47.9689C37.9987 47.2445 38.354 46.2918 38.354 45.1108C38.354 43.9297 37.9987 42.977 37.2883 42.2526C36.5779 41.5283 35.678 41.1661 34.5887 41.1661C33.4994 41.1661 32.5995 41.5283 31.8891 42.2526C31.1944 42.977 30.8471 43.9297 30.8471 45.1108C30.8471 46.2918 31.1944 47.2445 31.8891 47.9689C32.5995 48.6933 33.4994 49.0555 34.5887 49.0555Z" fill="#2D2D2D"/>
<path d="M56.4114 38.804V51.4175H53.5933V49.8113C53.1197 50.3782 52.5277 50.8191 51.8173 51.1341C51.1068 51.4333 50.3412 51.5829 49.5202 51.5829C47.831 51.5829 46.497 51.1183 45.5182 50.1893C44.5551 49.2444 44.0736 47.8508 44.0736 46.0084V38.804H47.0337V45.6068C47.0337 46.7406 47.2863 47.591 47.7915 48.1579C48.3125 48.709 49.0466 48.9846 49.9938 48.9846C51.0516 48.9846 51.8883 48.6618 52.504 48.0161C53.1355 47.3547 53.4512 46.4099 53.4512 45.1816V38.804H56.4114Z" fill="#2D2D2D"/>
<path d="M67.2966 38.6623C68.528 38.6623 69.6252 38.93 70.5882 39.4654C71.5671 40.0008 72.3327 40.7566 72.8853 41.733C73.4378 42.7093 73.7141 43.8352 73.7141 45.1108C73.7141 46.3863 73.4378 47.5201 72.8853 48.5122C72.3327 49.4885 71.5671 50.2444 70.5882 50.7798C69.6252 51.3152 68.528 51.5829 67.2966 51.5829C65.5916 51.5829 64.2418 51.016 63.2472 49.8822V56H60.2871V38.804H63.1051V40.4575C63.5945 39.8591 64.1944 39.4103 64.9048 39.1111C65.6311 38.8119 66.4283 38.6623 67.2966 38.6623ZM66.9651 49.0555C68.0544 49.0555 68.9464 48.6933 69.641 47.9689C70.3514 47.2445 70.7066 46.2918 70.7066 45.1108C70.7066 43.9297 70.3514 42.977 69.641 42.2526C68.9464 41.5283 68.0544 41.1661 66.9651 41.1661C66.2546 41.1661 65.6153 41.3314 65.0469 41.6621C64.4786 41.9771 64.0286 42.4337 63.6971 43.0321C63.3656 43.6305 63.1998 44.3234 63.1998 45.1108C63.1998 45.8981 63.3656 46.591 63.6971 47.1894C64.0286 47.7878 64.4786 48.2523 65.0469 48.583C65.6153 48.898 66.2546 49.0555 66.9651 49.0555Z" fill="#2D2D2D"/>
</svg>
